<svg xmlns="http://www.w3.org/2000/svg" viewBox="0 0 608.57 613.79">
  <defs>
    <style>.cls-1 {
      fill: url(#Blauegrün);
    }

    .cls-2 {
      fill: #fff;
    }</style>
    <linearGradient id="Blauegrün" x1="458.69" y1="555.54" x2="192.06" y2="93.72" gradientUnits="userSpaceOnUse">
      <stop offset="0" stop-color="#31d36c"/>
      <stop offset="0.18" stop-color="#31d16f"/>
      <stop offset="0.3" stop-color="#31cb77"/>
      <stop offset="0.39" stop-color="#31c085"/>
      <stop offset="0.47" stop-color="#31b29a"/>
      <stop offset="0.55" stop-color="#319fb4"/>
      <stop offset="0.62" stop-color="#3188d3"/>
      <stop offset="0.7" stop-color="#318cd4"/>
      <stop offset="0.77" stop-color="#3297d6"/>
      <stop offset="0.85" stop-color="#32a9da"/>
      <stop offset="0.9" stop-color="#3bd"/>
    </linearGradient>
  </defs>
  <g id="BUBBLE">
    <g id="BUBBLE_Path" data-name="BUBBLE Path">
      <path class="cls-1"
            d="M546.4,484.21a4.54,4.54,0,0,0-.79-.93c-.33-.32-.69-.63-1.05-.93-.73-.62-1.48-1.21-2.25-1.78-1.52-1.16-3.09-2.27-4.66-3.39-3.15-2.21-6.33-4.38-9.46-6.63a174.79,174.79,0,0,1-18-14.72,62.46,62.46,0,0,1-7.9-8.89,71.44,71.44,0,0,1-5.91-10.32,101,101,0,0,1-4.37-11c-.63-1.85-1.21-3.72-1.77-5.58s-1.1-3.72-1.6-5.68a84.76,84.76,0,0,1-2.27-23.73,122,122,0,0,1,3.37-23.48,172.85,172.85,0,0,1,7.11-22.5,213.26,213.26,0,0,1,9.79-21.44c3.67-7,7.7-13.63,11.69-20.22,2-3.28,4-6.6,5.87-9.8a67.91,67.91,0,0,0,4.61-9.66,81.73,81.73,0,0,0,5-20.88,91.8,91.8,0,0,0,.48-10.74,86.79,86.79,0,0,0-.92-10.67c-2.14-14.47-6.79-28.44-14.55-40.2a83.26,83.26,0,0,0-6.37-8.35c-2.39-2.75-4.89-5.35-7.47-7.83a101.47,101.47,0,0,0-16.89-13.06c-3-1.89-6.17-3.61-9.4-5.23s-6.5-3.09-10-4.54c-6.87-2.9-13.85-5.54-20.91-7.86s-14.21-4.38-21.42-6.12c-3.6-.88-7.23-1.65-10.85-2.38-1.82-.33-3.64-.69-5.45-1l-5.59-.94c-15-2.43-30.1-4.51-45.17-6.18s-30.12-2.87-45.05-3.38-30.06-.28-45.08.53-30,2.17-44.86,4.18q-11.13,1.5-22.08,3.6c-7.29,1.47-14.5,3.14-21.58,5.07a220.48,220.48,0,0,0-40.44,15.09,158.06,158.06,0,0,0-18.11,10.56c-1.4,1-2.86,2-4.21,3l-4,3.15-3.9,3.24L106.27,186c-9.85,9.31-17.7,20.5-24.35,32.17a171.51,171.51,0,0,0-9,18.14,121.93,121.93,0,0,0-6.26,19.34c-3.07,13.29-4.35,27-2.53,40a75.44,75.44,0,0,0,4.92,18.6A61,61,0,0,0,79,330.36c.5.62,1,1.21,1.59,1.8s1.08,1.18,1.69,1.78c1.17,1.21,2.4,2.36,3.66,3.5a91.49,91.49,0,0,0,8,6.45,119.53,119.53,0,0,0,18.24,10.66c13,6.25,27.32,10.66,42,14.66,3.67,1,7.36,2,11.09,2.94s7.37,1.85,11.07,2.72q11.11,2.64,22.35,4.92c15,3,30.11,5.57,45.27,8.07l22.76,3.61c7.54,1.08,15.23,2.13,22.87,3.28s15.27,2.39,22.87,3.78,15.2,2.83,22.76,4.46,15.09,3.41,22.58,5.36c1.88.47,3.74,1,5.61,1.5s3.73,1,5.6,1.57,3.74,1.05,5.61,1.7,3.67,1.24,5.5,1.89a202.57,202.57,0,0,1,21.54,9c7,3.4,13.77,7.21,20.39,11.23s13.05,8.32,19.39,12.71,12.61,8.8,19,12.92a146.06,146.06,0,0,0,20,11,212.35,212.35,0,0,0,21.48,7.94c3.65,1.13,7.33,2.17,11,3a73.53,73.53,0,0,0,11.26,1.73c3.81.3,7.64.5,11.47.48,1.92,0,3.83-.06,5.74-.19,1-.06,1.9-.15,2.83-.28a11.85,11.85,0,0,0,1.37-.25c.21-.06.43-.12.61-.19l.2-.11C546.46,484,546.35,484.09,546.4,484.21Zm.87-.29a.74.74,0,0,1-.26.81,2,2,0,0,1-.42.26,4.81,4.81,0,0,1-.76.25,13,13,0,0,1-1.46.29c-1,.15-1.94.24-2.9.32-1.93.15-3.86.22-5.79.26-3.86.09-7.72.09-11.59-.08a73.43,73.43,0,0,1-11.59-1.23c-3.81-.76-7.56-1.71-11.29-2.75a193.46,193.46,0,0,1-22-7.53,152.12,152.12,0,0,1-20.67-10.73c-6.62-4-13-8.39-19.39-12.63s-12.84-8.36-19.42-12.24-13.3-7.5-20.19-10.71a197.12,197.12,0,0,0-21.16-8.44q-2.71-.91-5.44-1.77c-1.78-.59-3.62-1-5.46-1.53s-3.68-1-5.54-1.43-3.7-.94-5.57-1.37Q345.27,411,334,408.92t-22.64-3.74c-7.58-1.08-15.18-2-22.79-2.85-3.81-.41-7.62-.83-11.43-1.18l-11.52-1-23-2.44c-15.33-1.58-30.69-3.18-46.06-5.2Q185,391,173.47,389.27c-3.85-.59-7.69-1.24-11.53-1.89l-11.45-2c-15.32-2.74-30.93-6-46.38-11.55a141.4,141.4,0,0,1-22.7-10.48,113.76,113.76,0,0,1-10.74-7c-1.73-1.28-3.44-2.6-5.1-4-.83-.67-1.67-1.41-2.51-2.17s-1.68-1.5-2.48-2.29a86.2,86.2,0,0,1-16.27-21.65,100,100,0,0,1-9.24-25.17,126.44,126.44,0,0,1-3-26.07,147.81,147.81,0,0,1,2-25.71c.68-4.22,1.56-8.45,2.59-12.62s2.27-8.3,3.62-12.41a132.8,132.8,0,0,1,10.43-23.68c8.47-15.11,20-28.31,33.11-39.53l5-4.13c1.7-1.32,3.43-2.61,5.16-3.9s3.58-2.42,5.37-3.61,3.6-2.25,5.4-3.38a189.33,189.33,0,0,1,22.4-11.48,251.09,251.09,0,0,1,46.75-14.67c7.87-1.72,15.75-3.09,23.6-4.28s15.72-2.31,23.57-3.13q23.56-2.52,47.12-3t47.18.79c15.81.93,31.4,2.89,46.81,5.19s30.73,5,46,8.13l5.75,1.2c2,.41,3.9.87,5.85,1.32,3.88.94,7.74,1.93,11.57,3q11.5,3.28,22.67,7.49c7.43,2.79,14.74,5.9,21.91,9.27a153.6,153.6,0,0,1,21.31,11.89,118.22,118.22,0,0,1,18.92,15.92q4.27,4.44,8.09,9.19a98.74,98.74,0,0,1,7.19,10.29,102.21,102.21,0,0,1,10,22.65,109.51,109.51,0,0,1,3,11.86c.79,4,1.42,8,1.83,12a99.57,99.57,0,0,1,.55,12.34,104.5,104.5,0,0,1-1,12.26,94.89,94.89,0,0,1-2.58,12,87.38,87.38,0,0,1-4.14,11.59,78.05,78.05,0,0,1-5.77,10.92c-2.14,3.38-4.26,6.51-6.39,9.74-4.24,6.4-8.43,12.74-12.2,19.25a184.33,184.33,0,0,0-17.86,41.3,114.17,114.17,0,0,0-4.08,22A78.8,78.8,0,0,0,494,413.16c.21.91.39,1.79.61,2.72l.7,2.77c.48,1.84,1,3.67,1.5,5.48a96.71,96.71,0,0,0,3.73,10.62,67.75,67.75,0,0,0,5.14,9.9,60.08,60.08,0,0,0,7,8.69,208.34,208.34,0,0,0,16.91,15.4q4.39,3.72,8.87,7.37l4.5,3.64c.74.62,1.49,1.23,2.22,1.86.37.32.74.65,1.09,1a6.85,6.85,0,0,1,.52.55A2.55,2.55,0,0,1,547.27,483.92Z"/>
    </g>
  </g>
  <g id="Bar_IV" data-name="Bar IV">
    <polygon class="cls-2"
             points="211.27 113.75 306.82 207.28 333.31 180.89 254.86 109.23 211.02 113.1 210.67 113.82 211.27 113.75"/>
  </g>
  <g id="Bar_III" data-name="Bar III">
    <polygon class="cls-2"
             points="185.97 116.41 316.53 240.71 292.43 270.03 144.44 127.94 143.74 128.16 143.98 126.5 185.97 116.41"/>
  </g>
  <g id="Bar_II" data-name="Bar II">
    <polygon class="cls-2"
             points="123.49 135.24 218.82 223.7 192.92 247.57 92.91 153.85 92.14 154.41 92.36 152.96 123.49 135.24"/>
  </g>
  <g id="Bar_I" data-name="Bar I">
    <polygon class="cls-2"
             points="75.22 167.56 148.56 232.09 128.66 254.12 55.64 192.6 55.11 193.39 55.26 191.39 75.22 167.56"/>
  </g>
  <g id="Poll_Text" data-name="Poll Text">
    <path class="cls-2"
          d="M271.84,286.82a130.65,130.65,0,0,1,23-1.85c11.73,0,20.41,2.71,25.94,7.69,5,4.43,8.13,11.13,8.13,19.37,0,8.39-2.5,15-7.19,19.8-6.38,6.77-16.6,10.14-28.28,10.14a39,39,0,0,1-9.66-.87v37.12H271.84Zm11.94,44.56a36.77,36.77,0,0,0,9.91,1c14.49,0,23.24-7.12,23.24-19.76,0-12.25-8.74-18.23-21.85-18.23a57.92,57.92,0,0,0-11.3.94Z"/>
    <path class="cls-2"
          d="M401.19,344.39c0,24.58-17.06,35.34-33,35.34-18,0-31.91-13.13-31.91-34.2,0-22.22,14.6-35.21,33-35.21C388.32,310.32,401.19,324.16,401.19,344.39Zm-52.64.77c0,14.56,8.34,25.52,20.12,25.52,11.58,0,20.23-10.81,20.23-25.88,0-11.23-5.66-25.44-20-25.44C354.71,319.36,348.55,332.57,348.55,345.16Z"/>
    <path class="cls-2" d="M416.47,280.75h12v97.47h-12Z"/>
    <path class="cls-2" d="M448.87,280.75h12v97.47h-12Z"/>
  </g>
</svg>
