<?xml version="1.0" encoding="utf-8"?>
<svg viewBox="0 0 1920 119" xmlns="http://www.w3.org/2000/svg">
  <g transform="matrix(0.1, 0, 0, -0.1, 0, 119)" fill="#fff" stroke="none">
    <path fill="#fff"
          d="M -0.202 0.138 L 0 1000 L 128 1000 C 442 999 842 957 1210 884 C 1445 837 1682 778 2070 670 C 2988 412 3320 355 3910 356 C 4460 356 4785 406 5826 654 C 6980 929 7462 1000 8158 1000 C 8784 1000 9255 949 10455 755 C 11341 612 11615 572 12015 531 C 12943 435 13598 436 14690 535 C 15110 574 15511 620 16505 745 C 18056 940 18468 982 18978 997 L 19200 1003 L 19199.925 -0.253 L -0.202 0.138 Z"/>
  </g>
</svg>
