<?xml version="1.0" encoding="utf-8"?>
<svg viewBox="0 0 1920 167" xmlns="http://www.w3.org/2000/svg">
  <g transform="matrix(0.1, 0, 0, -0.1, 0, 167)" fill="#151515" stroke="none">
    <path fill="#151515" d="M -0.342 -0.297 L 0 1500 L 98 1500 C 302 1500 574 1461 810 1399 C 1030 1341 1169 1291 1805 1042 C 2319 841 2668 745 3085 693 C 3290 667 3747 669 3955 698 C 4348 751 4583 812 5345 1061 C 5865 1231 6037 1283 6295 1345 C 6759 1459 7176 1507 7600 1497 C 8006 1488 8318 1429 8742 1284 C 9003 1194 9188 1113 9737 847 C 10121 660 10295 585 10489 520 C 10845 402 11044 388 11549 445 C 12016 498 12403 558 14115 845 C 15348 1051 15919 1143 16465 1224 C 17555 1386 18404 1478 18991 1496 L 19200 1503 L 19200.124 -0.011 L -0.342 -0.297 Z"/>
  </g>
</svg>