<?xml version="1.0" encoding="utf-8"?>
<svg viewBox="0 0 1920 219" xmlns="http://www.w3.org/2000/svg">
  <g transform="matrix(0.1, 0, 0, -0.1, 0, 219)" fill="#151515" stroke="none">
    <path fill="#151515" d="M 0.312 -0.011 L 19199.786 -0.101 L 19200 2192 L 19078 2185 C 18522 2155 17992 2057 16910 1784 C 15885 1524 15657 1467 15435 1417 C 13895 1063 13152 1020 12135 1225 C 11703 1313 11360 1410 10520 1685 C 9530 2009 9077 2119 8515 2171 C 8346 2187 7957 2187 7805 2171 C 7405 2129 7016 2028 6570 1849 C 6342 1758 6131 1663 5670 1443 C 5051 1147 4780 1038 4473 961 C 4266 909 4187 898 3968 893 C 3666 885 3478 912 3200 1002 C 2936 1087 2694 1204 2184 1491 C 1834 1687 1584 1816 1390 1897 C 964 2077 594 2162 133 2185 L 0 2192 L 0.312 -0.011 Z"/>
  </g>
</svg>